<svg width="25" height="25" viewBox="0 0 25 25" fill="none" xmlns="http://www.w3.org/2000/svg">
<path d="M18.5233 23.3118H6.97733C4.47302 23.3118 2.44141 21.2801 2.44141 18.7758V12.0072C2.44141 9.50287 4.47302 7.47125 6.97733 7.47125H18.5233C21.0276 7.47125 23.0592 9.50287 23.0592 12.0072V13.4555C23.0592 13.8678 22.7173 14.2098 22.3049 14.2098H20.2733C19.9213 14.2098 19.5995 14.3405 19.3681 14.5819L19.3581 14.592C19.0765 14.8635 18.9457 15.2356 18.9759 15.6178C19.0362 16.2816 19.6699 16.8146 20.394 16.8146H22.3049C22.7173 16.8146 23.0592 17.1566 23.0592 17.5689V18.7658C23.0592 21.2801 21.0276 23.3118 18.5233 23.3118ZM6.97733 8.97987C5.30779 8.97987 3.95003 10.3376 3.95003 12.0072V18.7758C3.95003 20.4454 5.30779 21.8031 6.97733 21.8031H18.5233C20.1928 21.8031 21.5506 20.4454 21.5506 18.7758V18.3333H20.394C18.8753 18.3333 17.588 17.2069 17.4673 15.7586C17.3868 14.9339 17.6885 14.1193 18.292 13.5259C18.815 12.9928 19.519 12.7011 20.2733 12.7011H21.5506V12.0072C21.5506 10.3376 20.1928 8.97987 18.5233 8.97987H6.97733Z" fill="white"/>
<path d="M3.19572 13.6667C2.78336 13.6667 2.44141 13.3248 2.44141 12.9124V8.3162C2.44141 6.81764 3.38681 5.45982 4.7848 4.92678L12.7704 1.90954C13.5951 1.59776 14.5104 1.70844 15.2245 2.21131C15.9486 2.71418 16.371 3.52883 16.371 4.40383V8.22566C16.371 8.63801 16.029 8.97997 15.6167 8.97997C15.2043 8.97997 14.8624 8.63801 14.8624 8.22566V4.40383C14.8624 4.02165 14.6813 3.66962 14.3595 3.44836C14.0377 3.2271 13.6555 3.1768 13.2934 3.31761L5.30779 6.33485C4.49313 6.64663 3.93997 7.4412 3.93997 8.3162V12.9124C3.95003 13.3348 3.60807 13.6667 3.19572 13.6667Z" fill="white"/>
<path d="M20.3941 18.3333C18.8754 18.3333 17.5881 17.2068 17.4674 15.7586C17.3869 14.9238 17.6887 14.1092 18.2921 13.5158C18.805 12.9928 19.5091 12.7011 20.2634 12.7011H22.3553C23.351 12.7313 24.1154 13.5157 24.1154 14.4812V16.5531C24.1154 17.5187 23.351 18.3031 22.3855 18.3333H20.3941ZM22.3352 14.2097H20.2734C19.9214 14.2097 19.5996 14.3405 19.3683 14.5819C19.0766 14.8635 18.9358 15.2456 18.976 15.6278C19.0364 16.2916 19.67 16.8246 20.3941 16.8246H22.3654C22.4961 16.8246 22.6168 16.704 22.6168 16.5531V14.4812C22.6168 14.3304 22.4961 14.2198 22.3352 14.2097Z" fill="white"/>
<path d="M14.7618 13.2543H7.7216C7.30924 13.2543 6.96729 12.9123 6.96729 12.5C6.96729 12.0876 7.30924 11.7457 7.7216 11.7457H14.7618C15.1742 11.7457 15.5161 12.0876 15.5161 12.5C15.5161 12.9123 15.1742 13.2543 14.7618 13.2543Z" fill="white"/>
</svg>

